<svg version="1.2" xmlns="http://www.w3.org/2000/svg" viewBox="0 0 319 98" width="319" height="98">
	<title>logo-big</title>
	<style>
		.s0 { fill: #4bac87 } 
		.s1 { fill: #939598 } 
		.s2 { fill: #000000 } 
	</style>
	<path class="s0" d="m0.8 1.6h16v20.7l16.7-20.7h18.8l-20.9 24.7 21.1 28.1h-18.9l-12-16.4-4.8 5.7v10.7h-16zm91.4 18.5c-6.1-3.2-10.9-4.9-15.1-4.9-5.8 0-8.4 5.2-8.4 12.8 0 7.6 2.6 12.8 8.4 12.8 4.2 0 9-1.7 15.1-4.9l7.2 11.9c-7.8 4.1-15.3 7.4-24.4 7.4-13.5 0-22.8-8.9-22.8-27.2 0-18.2 9.3-27.2 22.8-27.2 9.1 0 16.6 3.4 24.4 7.4zm35.2 34.4h-21.3v-52.8h21.3c18.4 0 28.1 7.5 28.1 26.4 0 18.8-9.7 26.4-28.1 26.4zm-1.7-39.3h-3.6v25.8h3.6c8.4 0 13.9-1.9 13.9-12.9 0-11-5.5-12.9-13.9-12.9zm78.4 12.1l-8.6 18.3h-8.2l-8.5-18.2v27.1h-16v-52.8h16.2l12.4 26.5 12.4-26.5h16.3v52.8h-16v-27.2z"/>
	<path class="s0" d="m0.8 1.6h16v20.7l16.7-20.7h18.8l-20.9 24.7 21.1 28.1h-18.9l-12-16.4-4.8 5.7v10.7h-16zm91.4 18.5c-6.1-3.2-10.9-4.9-15.1-4.9-5.8 0-8.4 5.2-8.4 12.8 0 7.6 2.6 12.8 8.4 12.8 4.2 0 9-1.7 15.1-4.9l7.2 11.9c-7.8 4.1-15.3 7.4-24.4 7.4-13.5 0-22.8-8.9-22.8-27.2 0-18.2 9.3-27.2 22.8-27.2 9.1 0 16.6 3.4 24.4 7.4zm35.2 34.4h-21.3v-52.8h21.3c18.4 0 28.1 7.5 28.1 26.4 0 18.8-9.7 26.4-28.1 26.4zm-1.7-39.3h-3.6v25.8h3.6c8.4 0 13.9-1.9 13.9-12.9 0-11-5.5-12.9-13.9-12.9zm78.4 12.1l-8.6 18.3h-8.2l-8.5-18.2v27.1h-16v-52.8h16.2l12.4 26.5 12.4-26.5h16.3v52.8h-16v-27.2z"/>
	<path class="s0" d="m0.8 1.6h16v20.7l16.7-20.7h18.8l-20.9 24.7 21.1 28.1h-18.9l-12-16.4-4.8 5.7v10.7h-16zm91.4 18.5c-6.1-3.2-10.9-4.9-15.1-4.9-5.8 0-8.4 5.2-8.4 12.8 0 7.6 2.6 12.8 8.4 12.8 4.2 0 9-1.7 15.1-4.9l7.2 11.9c-7.8 4-15.3 7.4-24.4 7.4-13.5 0-22.8-8.9-22.8-27.2 0-18.3 9.3-27.2 22.8-27.2 9.1 0 16.6 3.4 24.4 7.4zm35.2 34.4h-21.3v-52.8h21.3c18.4 0 28.1 7.5 28.1 26.4 0 18.8-9.7 26.4-28.1 26.4zm-1.7-39.3h-3.6v25.8h3.6c8.4 0 13.9-1.9 13.9-12.9 0-11.1-5.5-12.9-13.9-12.9zm78.4 12.1l-8.6 18.3h-8.2l-8.5-18.2v27.1h-16v-52.8h16.2l12.4 26.5 12.4-26.5h16.3v52.8h-16v-27.2z"/>
	<path class="s1" d="m261.3 49.2c0 1.7-0.9 3-2.3 3-1.2 0-1.9-0.7-1.9-1.9 0-1.7 0.9-3 2.3-3 1.2 0 1.9 0.7 1.9 1.9zm-0.7 0c0-0.7-0.3-1.3-1.2-1.3-1 0-1.6 1.2-1.6 2.4 0 0.7 0.3 1.3 1.2 1.3 1 0 1.6-1.2 1.6-2.4z"/>
	<path class="s2" d="m261.3 49.2c0 1.7-0.9 3-2.3 3-1.2 0-1.9-0.7-1.9-1.9 0-1.7 0.9-3 2.3-3 1.2 0 1.9 0.7 1.9 1.9zm-0.7 0c0-0.7-0.3-1.3-1.2-1.3-1 0-1.6 1.2-1.6 2.4 0 0.7 0.3 1.3 1.2 1.3 1 0 1.6-1.2 1.6-2.4z"/>
	<path class="s1" d="m264.9 52.1l0.1-0.7c-0.3 0.3-1 0.8-1.6 0.8-0.6 0-1.3-0.5-1.3-1.6 0-1.9 0.9-3.3 2.1-3.3 0.6 0 1.1 0.5 1.4 0.8l0.4-2.5h0.8l-1.2 6.5zm0.3-1.4l0.3-2c-0.3-0.4-0.7-0.8-1.2-0.8-0.9 0-1.4 1.3-1.4 2.6 0 0.6 0.3 1.1 0.7 1.1 0.6 0 1.1-0.5 1.6-0.9z"/>
	<path class="s2" d="m264.9 52.1l0.1-0.7c-0.3 0.3-1 0.8-1.6 0.8-0.6 0-1.3-0.5-1.3-1.6 0-1.9 0.9-3.3 2.1-3.3 0.6 0 1.1 0.5 1.4 0.8l0.4-2.5h0.8l-1.2 6.5zm0.3-1.4l0.3-2c-0.3-0.4-0.7-0.8-1.2-0.8-0.9 0-1.4 1.3-1.4 2.6 0 0.6 0.3 1.1 0.7 1.1 0.6 0 1.1-0.5 1.6-0.9z"/>
	<path class="s1" d="m272.8 52.1h-3.9l0.1-0.5c0.2-1.4 1.2-1.9 2.2-2.6 0.9-0.6 1.6-1.1 1.6-1.8 0-0.4-0.3-0.7-0.9-0.7-0.6 0-1.3 0.3-1.6 0.5l-0.3-0.5c0.4-0.3 1.1-0.7 2-0.7 1 0 1.6 0.5 1.6 1.4 0 1.2-1.3 1.9-2.4 2.6-0.8 0.6-1.2 0.9-1.3 1.6h3z"/>
	<path class="s2" d="m272.8 52.1h-3.9l0.1-0.5c0.2-1.4 1.2-1.9 2.2-2.6 0.9-0.6 1.6-1.1 1.6-1.8 0-0.4-0.3-0.7-0.9-0.7-0.6 0-1.3 0.3-1.6 0.5l-0.3-0.5c0.4-0.3 1.1-0.7 2-0.7 1 0 1.6 0.5 1.6 1.4 0 1.2-1.3 1.9-2.4 2.6-0.8 0.6-1.2 0.9-1.3 1.6h3z"/>
	<path class="s1" d="m278.8 48c0 1.5-0.7 4.2-2.7 4.2-1.4 0-1.8-1-1.8-2.2 0-1.5 0.8-4.2 2.7-4.2 1.4 0 1.8 0.9 1.8 2.2zm-0.7-0.1c0-0.7-0.1-1.5-1.1-1.5-1.4 0-1.9 2.6-1.9 3.6 0 0.7 0 1.6 1 1.6 1.4-0.1 2-2.6 2-3.7z"/>
	<path class="s2" d="m278.8 48c0 1.5-0.7 4.2-2.7 4.2-1.4 0-1.8-1-1.8-2.2 0-1.5 0.8-4.2 2.7-4.2 1.4 0 1.8 0.9 1.8 2.2zm-0.7-0.1c0-0.7-0.1-1.5-1.1-1.5-1.4 0-1.9 2.6-1.9 3.6 0 0.7 0 1.6 1 1.6 1.4-0.1 2-2.6 2-3.7z"/>
	<path class="s1" d="m280.3 52.1l0.9-5.4-1 0.6-0.3-0.6 1.5-0.8h0.7l-1.1 6.2z"/>
	<path class="s2" d="m280.3 52.1l0.9-5.4-1 0.6-0.3-0.6 1.5-0.8h0.7l-1.1 6.2z"/>
	<path class="s1" d="m282.7 50.9c0.3 0.2 0.9 0.6 1.6 0.6 0.9 0 1.5-0.5 1.5-1.3 0-0.8-0.7-1.2-1.5-1.2h-0.3l0.1-0.6h0.3c0.8 0 1.7-0.5 1.7-1.2 0-0.5-0.3-0.7-0.9-0.7-0.6 0-1.2 0.3-1.5 0.5l-0.2-0.6c0.2-0.1 0.9-0.6 1.8-0.6 1 0 1.6 0.6 1.6 1.3 0 0.6-0.5 1.3-1.4 1.6 0.6 0.2 1.1 0.8 1.1 1.5 0 1-0.7 2-2.2 2-1.1 0-1.8-0.5-2.1-0.7z"/>
	<path class="s2" d="m282.7 50.9c0.3 0.2 0.9 0.6 1.6 0.6 0.9 0 1.5-0.5 1.5-1.3 0-0.8-0.7-1.2-1.5-1.2h-0.3l0.1-0.6h0.3c0.8 0 1.7-0.5 1.7-1.2 0-0.5-0.3-0.7-0.9-0.7-0.6 0-1.2 0.3-1.5 0.5l-0.2-0.6c0.2-0.1 0.9-0.6 1.8-0.6 1 0 1.6 0.6 1.6 1.3 0 0.6-0.5 1.3-1.4 1.6 0.6 0.2 1.1 0.8 1.1 1.5 0 1-0.7 2-2.2 2-1.1 0-1.8-0.5-2.1-0.7z"/>
	<path class="s2" d="m248.9 97.3h-1.3v-64.8l-4.5-4.6 4.5-4.5v-22.7h1.3v23.2l-4 4 4 4.1z"/>
	<path class="s2" d="m257.1 8.5h1v-1.6l0.8-1 2.2 2.6h1.2l-2.8-3.3 2.6-3h-1.2l-2.8 3.4v-3.4h-1zm8.2-6.5c-2.1 0-2.8 1.5-2.8 3.3 0 1.8 0.7 3.3 2.8 3.3 2.1 0 2.9-1.5 2.9-3.3 0-1.8-0.8-3.3-2.9-3.3zm0 5.7c-1.4 0-1.8-1-1.8-2.4 0-1.4 0.4-2.5 1.8-2.5 1.4 0 1.9 1.1 1.9 2.5 0 1.4-0.5 2.4-1.9 2.4zm9 0.8h1v-6.4h-1.1l-2 4.2-2-4.2h-1v6.4h1v-4.8l1.7 3.7h0.6l1.8-3.7v4.8zm7.1-4.4c0-1.4-1-2-2.5-2h-2.3v6.4h0.9v-2.4h1.4c1.5 0 2.5-0.6 2.5-2zm-1 0c0 0.9-0.7 1.1-1.5 1.1h-1.4v-2.3h1.4c0.8 0 1.5 0.3 1.5 1.2zm6.2 4.4v-0.9h-3.3v-1.9h2.7v-0.8h-2.7v-2h3.2v-0.8h-4.1v6.4h4.2zm5.7-5.5v-0.9h-4.8v0.9h1.9v5.5h1v-5.5zm5.2 5.5v-0.9h-3.3v-1.9h2.7v-0.8h-2.7v-1.9h3.2v-0.9h-4.1v6.4h4.2zm5.2 0h1v-6.4h-1v4.9l-3.1-4.9h-1v6.4h1v-4.9zm7.2-5.6c-0.7-0.4-1.6-0.9-2.5-0.9-1.4 0-2.6 1-2.6 3.3 0 2.3 1.2 3.3 2.6 3.3 0.9 0 1.8-0.5 2.5-1l-0.5-0.7c-0.6 0.4-1.3 0.8-2 0.8-0.9 0-1.6-0.9-1.6-2.4 0-1.5 0.7-2.4 1.6-2.4 0.7 0 1.4 0.4 2 0.7zm-1-2.4h-0.6l-0.8 0.7-0.7-0.7h-0.7l0.9 1.2h1zm6 8h1v-6.4h-0.9v4.9l-3.1-4.9h-1v6.4h1v-4.9zm3.2-6.4h-0.9v6.4h0.9zm-56.3 11.7c-0.7-0.4-1.6-0.9-2.5-0.9-1.4 0-2.6 1-2.6 3.3 0 2.2 1.2 3.2 2.6 3.2 0.9 0 1.8-0.4 2.5-0.9l-0.5-0.7c-0.6 0.3-1.3 0.8-1.9 0.8-1 0-1.7-0.9-1.7-2.4 0-1.6 0.7-2.4 1.7-2.4 0.6 0 1.3 0.4 1.9 0.7zm5.2 5.6v-0.9h-3.2v-1.9h2.6v-0.8h-2.6v-2h3.2v-0.8h-4.2v6.4h4.2zm5.1 0h1v-6.4h-1v4.9l-3.1-4.9h-1v6.4h1v-5zm6.7-5.5v-0.8h-4.8v0.8h1.9v5.5h1v-5.5zm5.2 5.5v-0.8h-3.2v-1.9h2.6v-0.8h-2.6v-2h3.2v-0.8h-4.2v6.3h4.2zm5 0h1.1l-1.7-2.6c1-0.2 1.7-0.7 1.7-1.8 0-1.4-1-1.9-2.5-1.9h-2.5v6.3h0.9v-2.6h1.4zm0.1-4.5c0 0.8-0.6 1.1-1.5 1.1h-1.6v-2.1h1.6c0.9 0 1.5 0.2 1.5 1zm3.8 3.8v0.7h5v-0.8h-3.7l3.6-4.8v-0.7h-4.7v0.8h3.5zm10.3 0.8h1.1l-2.5-6.4h-1l-2.4 6.4h1l0.5-1.5h2.8zm-1.9-5.5l1.1 3.3h-2.2zm-39.3 13.2c0-2.3-1.1-3.2-3-3.2h-2.1v6.4h2.1c1.9 0 3-0.9 3-3.2zm-1 0c0 1.7-0.7 2.3-2.1 2.3h-1v-4.7h1c1.4 0 2.1 0.7 2.1 2.4zm6.4 3.2v-0.9h-3.2v-1.9h2.6v-0.8h-2.6v-2h3.2v-0.8h-4.2v6.4zm3.8-3.6c-1-0.4-1.8-0.5-1.8-1.2 0-0.6 0.6-0.9 1.2-0.9 0.5 0 1.3 0.3 1.8 0.5l0.5-0.7c-0.6-0.3-1.6-0.6-2.4-0.6-1.2 0-2.1 0.7-2.1 1.7 0 1.1 1 1.6 1.8 1.8 1 0.4 1.9 0.6 1.9 1.3 0 0.6-0.6 0.9-1.2 0.9-0.7 0-1.6-0.3-2.2-0.7l-0.4 0.8c0.6 0.3 1.6 0.8 2.6 0.8 1.2 0 2.2-0.7 2.2-1.8 0-1.2-1-1.7-1.9-1.9zm4.1-2.8h-1v6.4h1zm5.6 6.3h1v-3.5h-2.6v0.8h1.6v1.1c-0.3 0.3-1 0.9-1.7 0.9-1 0-1.6-1-1.6-2.5 0-1.5 0.7-2.4 1.6-2.4 0.8 0 1.5 0.5 2.1 0.9l0.5-0.8c-0.8-0.4-1.6-0.9-2.7-0.9-1.4 0-2.5 1-2.5 3.2 0 2.3 1.1 3.3 2.4 3.3 0.8 0 1.4-0.4 1.9-0.8zm6.4 0h1v-6.4h-1v5l-3.1-5h-1v6.4h1v-4.9zm-25.3 10.9h1v-6.4h-1l-2 4.3-2.1-4.3h-1v6.4h1v-4.8l1.8 3.7h0.5l1.8-3.7v4.8zm6.7 0h1.1l-2.4-6.4h-1.1l-2.4 6.4h1l0.5-1.5h2.8zm-1.9-5.4l1.2 3.2h-2.3zm7.8 5.5h1v-6.4h-1v4.9l-3-4.9h-1v6.4h0.9v-4.9zm6.9 0h1l-2.4-6.4h-1.1l-2.4 6.4h1l0.6-1.5h2.7zm-1.9-5.5l1.2 3.3h-2.3zm7.8 5.5h0.9v-3.6h-2.6v0.8h1.7v1.2c-0.3 0.3-1 0.8-1.7 0.8-1 0-1.7-0.9-1.7-2.4 0-1.5 0.7-2.4 1.7-2.4 0.7 0 1.5 0.5 2 0.8l0.5-0.7c-0.7-0.5-1.6-1-2.6-1-1.4 0-2.6 1-2.6 3.3 0 2.3 1.2 3.3 2.5 3.3 0.8 0 1.4-0.4 1.9-0.8zm6.4 0v-0.9h-3.2v-1.9h2.6v-0.8h-2.6v-2h3.2v-0.8h-4.2v6.4h4.2zm6.2 0h0.9v-6.4h-1l-2 4.2-2-4.2h-1v6.4h1v-4.8l1.7 3.7h0.6l1.8-3.7v4.8zm6.4 0v-0.9h-3.2v-1.9h2.6v-0.8h-2.6v-2h3.1v-0.8h-4.1v6.4h4.2zm5.2 0h1v-6.4h-1v4.9l-3.1-4.9h-1v6.4h1v-4.9zm6.7-5.6v-0.8h-4.8v0.8h1.9v5.6h1v-5.6z"/>
</svg>