<svg width="24" height="25" viewBox="0 0 24 25" fill="none" xmlns="http://www.w3.org/2000/svg">
<path d="M24 24.5H19.0547V16.1094C19.0547 14.9531 18.8281 14.0703 18.375 13.4609C17.9375 12.8359 17.2656 12.5234 16.3594 12.5234C15.375 12.5234 14.625 12.8438 14.1094 13.4844C13.5938 14.1094 13.3359 14.9844 13.3359 16.1094V24.5H8.57812V8.49219H13.3359V10.6484C13.3359 10.6484 13.7109 10.2109 14.4609 9.33594C15.2266 8.46094 16.4609 8.02344 18.1641 8.02344C19.0078 8.02344 19.7891 8.15625 20.5078 8.42188C21.2109 8.67188 21.8203 9.0625 22.3359 9.59375C22.8516 10.125 23.2578 10.7891 23.5547 11.5859C23.8359 12.3828 23.9766 13.3125 23.9766 14.375V24.5234L24 24.5ZM2.92969 6.40625C2.13281 6.40625 1.44531 6.11719 0.867188 5.53906C0.289062 4.96094 0 4.25781 0 3.42969C0 2.61719 0.289062 1.92969 0.867188 1.36719C1.44531 0.789063 2.13281 0.5 2.92969 0.5C3.74219 0.5 4.42969 0.789063 4.99219 1.36719C5.57031 1.94531 5.85938 2.64063 5.85938 3.45312C5.85938 4.28125 5.57031 4.98438 4.99219 5.5625C4.42969 6.14062 3.74219 6.42969 2.92969 6.42969V6.40625ZM0.46875 24.5H5.4375V8.49219H0.46875V24.5Z" fill="white"/>
</svg>
