<svg width="26" height="21" viewBox="0 0 26 21" fill="none" xmlns="http://www.w3.org/2000/svg">
<path d="M24.9766 4.875H24.9531C24.9375 5.45312 24.8203 6.08594 24.6016 6.77344C24.3984 7.46094 24.0938 8.21094 23.6875 9.02344C23.2812 9.82031 22.7812 10.6875 22.1875 11.625C21.5781 12.5469 20.8828 13.5391 20.1016 14.6016C19.2891 15.6641 18.5078 16.5859 17.7578 17.3672C17.0078 18.1641 16.2891 18.8281 15.6016 19.3594C14.9141 19.875 14.25 20.2656 13.6094 20.5312C12.9844 20.7969 12.3984 20.9297 11.8516 20.9297C11.1484 20.9297 10.5 20.6016 9.90625 19.9453C9.32812 19.2891 8.78906 18.3281 8.28906 17.0625C8.17969 16.6875 8.04688 16.1953 7.89062 15.5859C7.73438 14.9766 7.53906 14.2891 7.30469 13.5234C7.07031 12.7578 6.875 12.0781 6.71875 11.4844C6.5625 10.875 6.42188 10.375 6.29688 9.98438C5.95312 8.71875 5.58594 7.75781 5.19531 7.10156C4.80469 6.44531 4.39844 6.11719 3.97656 6.11719C3.89844 6.11719 3.70312 6.21875 3.39062 6.42188C3.07812 6.60938 2.65625 6.89844 2.125 7.28906L0.953125 5.8125C1.15625 5.67188 1.40625 5.46875 1.70312 5.20312C2 4.9375 2.34375 4.63281 2.73438 4.28906C3.125 3.92969 3.46875 3.625 3.76562 3.375C4.07812 3.10937 4.32812 2.89844 4.51562 2.74219C5.28125 2.08594 5.95312 1.57031 6.53125 1.19531C7.125 0.820312 7.63281 0.617188 8.05469 0.585938C9.02344 0.460937 9.78906 0.726562 10.3516 1.38281C10.9141 2.02344 11.3125 3.01562 11.5469 4.35938C11.7656 5.79688 11.9609 6.97656 12.1328 7.89844C12.3203 8.80469 12.4531 9.45312 12.5312 9.84375C12.8125 11.0312 13.1016 11.9297 13.3984 12.5391C13.6953 13.1484 14 13.4531 14.3125 13.4531C14.5469 13.4531 14.8516 13.25 15.2266 12.8438C15.6172 12.4219 16.0625 11.8281 16.5625 11.0625C17.0625 10.25 17.4453 9.54688 17.7109 8.95312C17.9766 8.35938 18.1328 7.85156 18.1797 7.42969C18.2578 6.74219 18.1641 6.22656 17.8984 5.88281C17.6328 5.53906 17.1875 5.36719 16.5625 5.36719C16.2969 5.36719 16.0078 5.39062 15.6953 5.4375C15.3984 5.48438 15.0938 5.58594 14.7812 5.74219C15.0781 4.77344 15.4375 3.92969 15.8594 3.21094C16.2812 2.50781 16.7734 1.92188 17.3359 1.45312C17.8984 0.984375 18.5234 0.632812 19.2109 0.398438C19.9141 0.179687 20.6797 0.078125 21.5078 0.09375C22.7422 0.140625 23.6484 0.570313 24.2266 1.38281C24.8047 2.17969 25.0547 3.34375 24.9766 4.875Z" fill="white"/>
</svg>
